name analog
datacolumns 19
datarows 61
range 0.1715 0.2015
endheader
time	ground_force_vx	ground_force_vy	ground_force_vz	ground_force_px	ground_force_py	ground_force_pz	l_ground_force_vx	l_ground_force_vy	l_ground_force_vz	l_ground_force_px	l_ground_force_py	l_ground_force_pz	ground_torque_x	ground_torque_y	ground_torque_z	l_ground_torque_x	l_ground_torque_y	l_ground_torque_z
0.1715	-0.0	-0.0	-0.0	-11.561202049255373	3.225561618804932	-729.3897705078125	-0.0	-0.0	-0.0	-34.97826385498047	16.339008331298828	75.66732025146484	-0.0	-0.0	-0.0	-0.0	-0.0	-0.0
0.17200000000000001	-0.0	-0.0	-0.0	-13.362943649291992	3.369326591491699	-728.81982421875	-0.0	-0.0	-0.0	-35.15866470336914	16.194534301757812	76.01273345947266	-0.0	-0.0	-0.0	-0.0	-0.0	-0.0
0.17250000000000001	-0.0	-0.0	-0.0	-14.55784797668457	3.707171678543091	-731.2960815429688	-0.0	-0.0	-0.0	-35.19391632080078	16.32145118713379	75.3857650756836	-0.0	-0.0	-0.0	-0.0	-0.0	-0.0
0.17300000000000001	-0.0	-0.0	-0.0	-16.43231964111328	3.869025468826294	-732.7737426757812	-0.0	-0.0	-0.0	-34.99757385253906	15.924625396728516	75.87445831298828	-0.0	-0.0	-0.0	-0.0	-0.0	-0.0
0.17350000000000002	-0.0	-0.0	-0.0	-17.8040714263916	3.6368134021759033	-733.4852294921875	-0.0	-0.0	-0.0	-34.85577392578125	16.286481857299805	75.4547119140625	-0.0	-0.0	-0.0	-0.0	-0.0	-0.0
0.17400000000000002	-0.0	-0.0	-0.0	-18.82186508178711	3.689378261566162	-734.2611083984375	-0.0	-0.0	-0.0	-34.83430862426758	16.394119262695312	75.5232925415039	-0.0	-0.0	-0.0	-0.0	-0.0	-0.0
0.17450000000000002	-0.0	-0.0	-0.0	-19.39192771911621	2.8329555988311768	-737.0172729492188	-0.0	-0.0	-0.0	-35.194305419921875	16.139650344848633	75.60037231445312	-0.0	-0.0	-0.0	-0.0	-0.0	-0.0
0.17500000000000002	-0.0	-0.0	-0.0	-19.59332847595215	2.978111743927002	-737.639404296875	-0.0	-0.0	-0.0	-34.88880157470703	16.104564666748047	75.74691772460938	-0.0	-0.0	-0.0	-0.0	-0.0	-0.0
0.17550000000000002	-0.0	-0.0	-0.0	-19.484811782836918	1.9608688354492188	-742.8754272460938	-0.0	-0.0	-0.0	-35.032958984375	16.371896743774414	76.30302429199219	-0.0	-0.0	-0.0	-0.0	-0.0	-0.0
0.176	-0.0	-0.0	-0.0	-19.41310691833496	1.0891873836517334	-743.9945678710938	-0.0	-0.0	-0.0	-34.565650939941406	16.32215118408203	76.57559967041016	-0.0	-0.0	-0.0	-0.0	-0.0	-0.0
0.1765	-0.0	-0.0	-0.0	-18.96712875366211	0.0024338215589523	-751.14501953125	-0.0	-0.0	-0.0	-34.799346923828125	16.537010192871094	75.5904769897461	-0.0	-0.0	-0.0	-0.0	-0.0	-0.0
0.177	-0.0	-0.0	-0.0	-18.86064338684082	-1.0471208095550537	-755.0198974609375	-0.0	-0.0	-0.0	-34.98133087158203	16.394939422607422	74.88836669921875	-0.0	-0.0	-0.0	-0.0	-0.0	-0.0
0.1775	-0.0	-0.0	-0.0	-18.857999801635746	-2.0099411010742188	-757.7078247070312	-0.0	-0.0	-0.0	-34.672149658203125	16.263885498046875	75.30665588378906	-0.0	-0.0	-0.0	-0.0	-0.0	-0.0
0.178	-0.0	-0.0	-0.0	-19.784536361694336	-2.36910343170166	-757.9807739257812	-0.0	-0.0	-0.0	-34.837196350097656	16.191064834594727	75.26579284667969	-0.0	-0.0	-0.0	-0.0	-0.0	-0.0
0.1785	-0.0	-0.0	-0.0	-19.98627471923828	-3.030433654785156	-760.5203857421875	-0.0	-0.0	-0.0	-34.943931579589844	16.232711791992188	75.81989288330078	-0.0	-0.0	-0.0	-0.0	-0.0	-0.0
0.179	-0.0	-0.0	-0.0	-19.96922492980957	-3.050865888595581	-764.715576171875	-0.0	-0.0	-0.0	-34.45487976074219	16.16006088256836	76.65681457519531	-0.0	-0.0	-0.0	-0.0	-0.0	-0.0
0.1795	-0.0	-0.0	-0.0	-20.3262939453125	-2.5333709716796875	-764.6482543945312	-0.0	-0.0	-0.0	-35.08877944946289	16.207754135131836	74.81989288330078	-0.0	-0.0	-0.0	-0.0	-0.0	-0.0
0.18	-0.0	-0.0	-0.0	-19.69840812683105	-2.4578185081481934	-766.2361450195312	-0.0	-0.0	-0.0	-35.050655364990234	15.890304565429688	75.53791046142578	-0.0	-0.0	-0.0	-0.0	-0.0	-0.0
0.1805	-0.0	-0.0	-0.0	-18.644996643066406	-1.4943820238113403	-766.7685546875	-0.0	-0.0	-0.0	-35.067718505859375	16.121700286865234	76.22345733642578	-0.0	-0.0	-0.0	-0.0	-0.0	-0.0
0.181	-0.0	-0.0	-0.0	-18.644996643066406	-1.0224052667617798	-765.138427734375	-0.0	-0.0	-0.0	-34.60342788696289	16.46444320678711	75.3038330078125	-0.0	-0.0	-0.0	-0.0	-0.0	-0.0
0.1815	-0.0	-0.0	-0.0	-18.041677474975582	1.4559462070465088	-764.701904296875	-0.0	-0.0	-0.0	-34.777732849121094	16.160417556762695	75.65433502197266	-0.0	-0.0	-0.0	-0.0	-0.0	-0.0
0.182	-0.0	-0.0	-0.0	-16.818302154541016	4.630534648895264	-762.3136596679688	-0.0	-0.0	-0.0	-34.63736724853516	16.262680053710938	76.45978546142578	-0.0	-0.0	-0.0	-0.0	-0.0	-0.0
0.1825	-0.0	-0.0	-0.0	-17.340747833251953	7.041301727294922	-760.4811401367188	-0.0	-0.0	-0.0	-34.794395446777344	15.958622932434082	76.02400207519531	-0.0	-0.0	-0.0	-0.0	-0.0	-0.0
0.183	-0.0	-0.0	-0.0	-17.914396286010742	8.5565185546875	-759.7570190429688	-0.0	-0.0	-0.0	-34.615291595458984	16.08243751525879	76.37525177001953	-0.0	-0.0	-0.0	-0.0	-0.0	-0.0
0.1835	-0.0	-0.0	-0.0	-18.57267570495605	10.083855628967283	-759.2031860351562	-0.0	-0.0	-0.0	-34.492027282714844	16.554412841796875	75.16981506347656	-0.0	-0.0	-0.0	-0.0	-0.0	-0.0
0.184	-0.0	-0.0	-0.0	-18.87892341613769	11.904855728149414	-756.7783203125	-0.0	-0.0	-0.0	-34.855201721191406	16.379962921142578	76.68221282958984	-0.0	-0.0	-0.0	-0.0	-0.0	-0.0
0.1845	-0.0	-0.0	-0.0	-18.372228622436523	12.411057472229004	-758.2570190429688	-0.0	-0.0	-0.0	-34.97261428833008	16.194534301757812	75.8056640625	-0.0	-0.0	-0.0	-0.0	-0.0	-0.0
0.185	-0.0	-0.0	-0.0	-17.68572998046875	12.495031356811523	-761.102783203125	-0.0	-0.0	-0.0	-34.63139343261719	16.397109985351562	74.7528076171875	-0.0	-0.0	-0.0	-0.0	-0.0	-0.0
0.1855	-0.0	-0.0	-0.0	-16.643413543701172	11.820868492126465	-760.043212890625	-0.0	-0.0	-0.0	-34.944862365722656	15.828661918640137	75.96007537841797	-0.0	-0.0	-0.0	-0.0	-0.0	-0.0
0.186	-0.0	-0.0	-0.0	-15.294062614440918	10.645548820495604	-761.4998168945312	-0.0	-0.0	-0.0	-34.816009521484375	16.23423194885254	77.01337432861328	-0.0	-0.0	-0.0	-0.0	-0.0	-0.0
0.1865	-0.0	-0.0	-0.0	-14.179407119750977	9.470291137695312	-764.5455322265625	-0.0	-0.0	-0.0	-34.743141174316406	16.21125602722168	76.94854736328125	-0.0	-0.0	-0.0	-0.0	-0.0	-0.0
0.187	-0.0	-0.0	-0.0	-11.775787353515623	7.677060604095459	-766.0238037109375	-0.0	-0.0	-0.0	-34.9616584777832	16.211233139038086	75.5597152709961	-0.0	-0.0	-0.0	-0.0	-0.0	-0.0
0.1875	-0.0	-0.0	-0.0	-10.850444793701172	5.403746604919434	-768.7410888671875	-0.0	-0.0	-0.0	-34.94513320922852	16.104564666748047	75.61070251464844	-0.0	-0.0	-0.0	-0.0	-0.0	-0.0
0.188	-0.0	-0.0	-0.0	-9.974995613098145	4.017167568206787	-768.1163940429688	-0.0	-0.0	-0.0	-34.65348434448242	16.16128921508789	76.00018310546875	-0.0	-0.0	-0.0	-0.0	-0.0	-0.0
0.1885	-0.0	-0.0	-0.0	-9.294453620910645	2.696861267089844	-771.5670166015625	-0.0	-0.0	-0.0	-34.87229537963867	16.194534301757812	76.3780517578125	-0.0	-0.0	-0.0	-0.0	-0.0	-0.0
0.189	-0.0	-0.0	-0.0	-8.937573432922363	1.733085036277771	-769.3828735351562	-0.0	-0.0	-0.0	-34.799346923828125	16.324783325195312	76.1566162109375	-0.0	-0.0	-0.0	-0.0	-0.0	-0.0
0.1895	-0.0	-0.0	-0.0	-9.066502571105955	0.518312394618988	-767.65576171875	-0.0	-0.0	-0.0	-34.78291320800781	16.284503936767578	76.95162963867188	-0.0	-0.0	-0.0	-0.0	-0.0	-0.0
0.19	-0.0	-0.0	-0.0	-8.369327545166016	-0.5209792852401733	-767.6554565429688	-0.0	-0.0	-0.0	-34.60402297973633	16.357973098754883	75.103759765625	-0.0	-0.0	-0.0	-0.0	-0.0	-0.0
0.1905	-0.0	-0.0	-0.0	-7.963254451751709	-1.6136654615402222	-766.0472412109375	-0.0	-0.0	-0.0	-34.872432708740234	16.415054321289062	76.25070190429688	-0.0	-0.0	-0.0	-0.0	-0.0	-0.0
0.191	-0.0	-0.0	-0.0	-7.639333724975586	-2.342853307723999	-766.2635498046875	-0.0	-0.0	-0.0	-34.969730377197266	16.227384567260742	74.4993896484375	-0.0	-0.0	-0.0	-0.0	-0.0	-0.0
0.1915	-0.0	-0.0	-0.0	-7.05499792098999	-2.7229738235473637	-763.0630493164062	-0.0	-0.0	-0.0	-35.05929183959961	16.128902435302734	75.23176574707031	-0.0	-0.0	-0.0	-0.0	-0.0	-0.0
0.192	-0.0	-0.0	-0.0	-6.568915843963623	-3.655564308166504	-763.1571655273438	-0.0	-0.0	-0.0	-35.05144119262695	15.736566543579102	75.71013641357422	-0.0	-0.0	-0.0	-0.0	-0.0	-0.0
0.1925	-0.0	-0.0	-0.0	-6.723374843597412	-4.723911285400391	-763.0928344726562	-0.0	-0.0	-0.0	-35.09222412109375	16.30083656311035	74.81651306152344	-0.0	-0.0	-0.0	-0.0	-0.0	-0.0
0.193	-0.0	-0.0	-0.0	-6.309251308441162	-4.861241817474365	-761.6802368164062	-0.0	-0.0	-0.0	-34.91339111328125	16.13718605041504	76.06219482421875	-0.0	-0.0	-0.0	-0.0	-0.0	-0.0
0.1935	-0.0	-0.0	-0.0	-4.914774417877197	-5.185783386230469	-760.845703125	-0.0	-0.0	-0.0	-34.72606658935547	15.989716529846191	75.3277587890625	-0.0	-0.0	-0.0	-0.0	-0.0	-0.0
0.194	-0.0	-0.0	-0.0	-4.857987403869629	-5.404590129852295	-758.8554077148438	-0.0	-0.0	-0.0	-34.99440383911133	16.210769653320312	75.8056640625	-0.0	-0.0	-0.0	-0.0	-0.0	-0.0
0.1945	-0.0	-0.0	-0.0	-3.885175466537476	-4.813041687011719	-757.3789672851562	-0.0	-0.0	-0.0	-34.75102233886719	15.825685501098633	76.34619140625	-0.0	-0.0	-0.0	-0.0	-0.0	-0.0
0.195	-0.0	-0.0	-0.0	-3.666150093078613	-4.473543167114258	-753.6221313476562	-0.0	-0.0	-0.0	-35.067718505859375	16.01459503173828	75.26541900634766	-0.0	-0.0	-0.0	-0.0	-0.0	-0.0
0.1955	-0.0	-0.0	-0.0	-3.154568910598755	-2.51173734664917	-748.8689575195312	-0.0	-0.0	-0.0	-34.98748779296875	16.01459503173828	75.16670989990234	-0.0	-0.0	-0.0	-0.0	-0.0	-0.0
0.196	-0.0	-0.0	-0.0	-2.9029250144958496	-1.3851014375686646	-746.848388671875	-0.0	-0.0	-0.0	-34.58841323852539	16.252304077148438	74.94121551513672	-0.0	-0.0	-0.0	-0.0	-0.0	-0.0
0.1965	-0.0	-0.0	-0.0	-2.490875720977783	0.1211779564619064	-743.416015625	-0.0	-0.0	-0.0	-34.684364318847656	16.25235366821289	76.80797576904297	-0.0	-0.0	-0.0	-0.0	-0.0	-0.0
0.197	-0.0	-0.0	-0.0	-1.2581552267074585	1.4992307424545288	-741.7776489257812	-0.0	-0.0	-0.0	-35.15718078613281	16.072490692138672	75.9063949584961	-0.0	-0.0	-0.0	-0.0	-0.0	-0.0
0.1975	-0.0	-0.0	-0.0	-0.1558919250965118	3.0782790184021	-739.9751586914062	-0.0	-0.0	-0.0	-35.01007843017578	16.400447845458984	76.09420776367188	-0.0	-0.0	-0.0	-0.0	-0.0	-0.0
0.198	-0.0	-0.0	-0.0	0.6308817267417908	4.189128875732422	-739.1047973632812	-0.0	-0.0	-0.0	-35.020076751708984	16.442607879638672	74.9791488647461	-0.0	-0.0	-0.0	-0.0	-0.0	-0.0
0.1985	-0.0	-0.0	-0.0	1.7011816501617432	4.911880016326904	-737.5656127929688	-0.0	-0.0	-0.0	-34.93073272705078	15.792489051818848	75.8678207397461	-0.0	-0.0	-0.0	-0.0	-0.0	-0.0
0.199	-0.0	-0.0	-0.0	3.762702465057373	5.8469672203063965	-738.6012573242188	-0.0	-0.0	-0.0	-35.14137268066406	15.982802391052246	74.64988708496094	-0.0	-0.0	-0.0	-0.0	-0.0	-0.0
0.1995	-0.0	-0.0	-0.0	5.457681179046631	6.500694274902344	-739.723876953125	-0.0	-0.0	-0.0	-34.70988464355469	16.162784576416016	74.56703186035156	-0.0	-0.0	-0.0	-0.0	-0.0	-0.0
0.2	-0.0	-0.0	-0.0	6.680590152740479	5.783287048339844	-740.8685302734375	-0.0	-0.0	-0.0	-35.14143371582031	15.924625396728516	76.1566162109375	-0.0	-0.0	-0.0	-0.0	-0.0	-0.0
0.2005	-0.0	-0.0	-0.0	8.643033027648926	5.903730392456055	-742.6963500976562	-0.0	-0.0	-0.0	-34.83076477050781	16.003620147705078	75.68240356445312	-0.0	-0.0	-0.0	-0.0	-0.0	-0.0
0.201	-0.0	-0.0	-0.0	9.923333168029783	5.400281429290772	-743.2359008789062	-0.0	-0.0	-0.0	-34.9108772277832	16.136112213134766	76.56909942626953	-0.0	-0.0	-0.0	-0.0	-0.0	-0.0
0.2015	-0.0	-0.0	-0.0	11.177716255187988	4.781666278839111	-748.2639770507812	-0.0	-0.0	-0.0	-35.02077865600586	16.241741180419922	76.0952377319336	-0.0	-0.0	-0.0	-0.0	-0.0	-0.0
